<svg width="21" height="15" viewBox="0 0 21 15" fill="none" xmlns="http://www.w3.org/2000/svg">
<path d="M20.1755 2.59837C20.0615 2.18493 19.839 1.80801 19.5302 1.50516C19.2214 1.2023 18.8371 0.984081 18.4156 0.872222C16.8723 0.459473 10.6618 0.459473 10.6618 0.459473C10.6618 0.459473 4.4511 0.471998 2.90809 0.884747C2.48658 0.996625 2.10231 1.21486 1.79355 1.51771C1.48478 1.82056 1.26228 2.19747 1.14822 2.6109C0.681438 5.30033 0.500344 9.39811 1.16099 11.9798C1.27505 12.3933 1.49755 12.7702 1.80632 13.073C2.11508 13.3759 2.49935 13.5941 2.92086 13.706C4.46399 14.1187 10.6746 14.1187 10.6746 14.1187C10.6746 14.1187 16.8852 14.1187 18.4283 13.706C18.8498 13.5941 19.2341 13.3759 19.5429 13.073C19.8516 12.7702 20.0741 12.3933 20.1882 11.9798C20.6804 9.2867 20.8322 5.19141 20.1754 2.59849L20.1755 2.59837Z" fill="#FF0000"/>
</svg>
